<?xml version="1.0"?>
<svg xmlns="http://www.w3.org/2000/svg" id="Layer_1" data-name="Layer 1" viewBox="0 0 128 128" width="512" height="512"><title>BAND AID</title><circle cx="29.412" cy="98.589" r="3" transform="translate(-61.098 49.672) rotate(-45)"/><circle cx="37.119" cy="106.296" r="3" transform="translate(-64.291 57.381) rotate(-45)"/><circle cx="21.704" cy="90.881" r="3" transform="translate(-57.906 41.965) rotate(-45)"/><circle cx="37.367" cy="90.634" r="3" transform="translate(-53.143 52.968) rotate(-45)"/><circle cx="45.074" cy="98.341" r="3" transform="translate(-56.336 60.676) rotate(-45)"/><circle cx="29.659" cy="82.926" r="3" transform="translate(-49.951 45.26) rotate(-45)"/><circle cx="98.589" cy="29.412" r="3" transform="translate(8.079 78.327) rotate(-45)"/><circle cx="106.296" cy="37.119" r="3" transform="translate(4.887 86.035) rotate(-45)"/><circle cx="90.881" cy="21.704" r="3" transform="translate(11.272 70.619) rotate(-45)"/><circle cx="90.634" cy="37.367" r="3" transform="translate(0.124 75.032) rotate(-45)"/><circle cx="98.341" cy="45.074" r="3" transform="translate(-3.068 82.74) rotate(-45)"/><circle cx="82.926" cy="29.659" r="3" transform="translate(3.317 67.324) rotate(-45)"/><path d="M94.624,64,116.9,41.726A21.655,21.655,0,0,0,86.272,11.1L64,33.376l-22.27-22.27A21.654,21.654,0,0,0,11.106,41.729L33.376,64,11.1,86.272A21.655,21.655,0,0,0,41.728,116.9L64,94.624l22.27,22.27a21.654,21.654,0,1,0,30.623-30.623ZM88.747,13.577a18.156,18.156,0,0,1,25.676,25.676L92.149,61.526,66.474,35.851ZM39.253,114.423A18.156,18.156,0,0,1,13.577,88.747L35.851,66.474,61.526,92.149Zm75.166,0a18.155,18.155,0,0,1-25.674,0L13.581,39.255A18.154,18.154,0,0,1,39.255,13.581l75.164,75.164A18.177,18.177,0,0,1,114.419,114.419Z"/><circle cx="29.411" cy="29.412" r="3" transform="translate(-12.183 29.411) rotate(-45)"/><circle cx="21.704" cy="37.119" r="3" transform="translate(-8.773 6.787) rotate(-14.822)"/><circle cx="37.119" cy="21.704" r="3" transform="translate(-4.475 32.604) rotate(-45)"/><circle cx="37.366" cy="37.367" r="3" transform="translate(-15.478 37.367) rotate(-45)"/><circle cx="29.659" cy="45.074" r="3" transform="translate(-23.185 34.174) rotate(-45)"/><circle cx="45.074" cy="29.659" r="3" transform="translate(-7.77 40.559) rotate(-45)"/><circle cx="98.588" cy="98.589" r="3" transform="translate(-40.837 98.587) rotate(-45)"/><circle cx="90.881" cy="106.296" r="3" transform="translate(-48.544 95.397) rotate(-45)"/><circle cx="106.296" cy="90.881" r="3" transform="translate(-33.129 101.781) rotate(-45)"/><circle cx="90.633" cy="90.634" r="3" transform="translate(-37.542 90.634) rotate(-45)"/><circle cx="82.926" cy="98.341" r="3" transform="translate(-45.249 87.442) rotate(-45)"/><circle cx="98.341" cy="82.926" r="3" transform="translate(-29.834 93.826) rotate(-45)"/><path d="M89.65,68.243a1.75,1.75,0,0,0-.513-1.237L61,38.862a1.749,1.749,0,0,0-2.475,0L38.862,58.52a1.749,1.749,0,0,0,0,2.475L67,89.138a1.749,1.749,0,0,0,2.475,0L89.138,69.48A1.75,1.75,0,0,0,89.65,68.243ZM68.242,85.425,42.574,59.757,59.758,42.575,85.426,68.243Z"/></svg>
