<?xml version="1.0" encoding="iso-8859-1"?>
<!-- Generator: Adobe Illustrator 19.0.0, SVG Export Plug-In . SVG Version: 6.00 Build 0)  -->
<svg version="1.1" id="Capa_1" xmlns="http://www.w3.org/2000/svg" xmlns:xlink="http://www.w3.org/1999/xlink" x="0px" y="0px"
	 viewBox="0 0 508 508" style="enable-background:new 0 0 508 508;" xml:space="preserve">
<g>
	<g>
		<polygon points="450.6,166.8 450.6,196.1 352.3,97.8 270.4,179.8 95.9,5.3 84.3,16.9 270.4,202.9 352.3,121 439.1,207.7 
			409.7,207.7 409.7,224.1 467,224.1 467,166.8 		"/>
	</g>
</g>
<g>
	<g>
		<path d="M491.6,486.3V371.6h-81.9v114.7h-16.4V240.5h-81.9v245.8H295V289.7h-82v196.6h-16.4V175h-81.9v311.4H98.3V125.8H16.4
			v360.5H0v16.4h508v-16.4H491.6z M82,486.3H32.8V142.2H82V486.3z M180.3,486.3h-49.2v-295h49.2V486.3z M278.6,486.4h-49.2V306.1
			h49.2V486.4z M376.9,486.3h-49.2V256.9h49.2V486.3z M475.3,486.3h-49.2V388h49.2V486.3z"/>
	</g>
</g>
<g>
</g>
<g>
</g>
<g>
</g>
<g>
</g>
<g>
</g>
<g>
</g>
<g>
</g>
<g>
</g>
<g>
</g>
<g>
</g>
<g>
</g>
<g>
</g>
<g>
</g>
<g>
</g>
<g>
</g>
</svg>
